<svg id="Layer_1" data-name="Layer 1" xmlns="http://www.w3.org/2000/svg" viewBox="0 0 315.57 349.1"><path d="M127.38,249.35c0-58.76,44.86-105.2,105.2-105.2,60.74,0,105.2,46.44,105.2,105.2s-44.46,105.2-105.2,105.2C172.24,354.55,127.38,308.1,127.38,249.35Zm166.34,0c0-35.73-26.21-64.71-61.14-64.71s-61.14,29-61.14,64.71c0,35.33,26.2,64.71,61.14,64.71S293.72,284.68,293.72,249.35Z" transform="translate(-22.22 -5.45)"/><path d="M182,150l-24.13-37L232,41.38c3.59-3.61,7.57-11.21,7.55-18.4,0-8.38-5.63-17.56-18.41-17.53a26.61,26.61,0,0,0-18.75,8l-67,64.85-42.08-65c-2.41-4-6.81-7.57-14-7.56-10.78,0-23.54,9.64-23.51,23.62a16,16,0,0,0,2.41,8.78l45.69,70.6L29.77,180.41c-3.59,3.61-7.57,11.2-7.55,18.39,0,8.39,6,18,18.41,17.94a26.74,26.74,0,0,0,18.76-8l67-65.25,22.13,33.87A101.45,101.45,0,0,1,182,150Z" transform="translate(-22.22 -5.45)"/><path d="M181.44,224a16.66,16.66,0,0,0,6.82,1.37c11.19,0,23.55-9.63,23.52-24a18.14,18.14,0,0,0-1.72-7.36A61.6,61.6,0,0,0,181.44,224Z" transform="translate(-22.22 -5.45)"/></svg>